<mxfile host="app.diagrams.net" modified="2023-05-26T09:19:43.671Z" agent="Mozilla/5.0 (Windows NT 10.0; Win64; x64) AppleWebKit/537.36 (KHTML, like Gecko) Chrome/113.0.0.0 Safari/537.36" version="21.2.3" etag="r01-y--zWjvh-V3phnNl" type="github">
  <diagram name="Page-1" id="HiAuaoQB470Q1giYPstv">
    <mxGraphModel>
      <root>
        <mxCell id="0" />
        <mxCell id="1" parent="0" />
      </root>
    </mxGraphModel>
  </diagram>
</mxfile>
